<?xml version="1.0" encoding="UTF-8"?>
<svg width="241px" height="133px" viewBox="0 0 241 133" version="1.1" xmlns="http://www.w3.org/2000/svg" xmlns:xlink="http://www.w3.org/1999/xlink">
    <title>undraw_chat_re_re1u</title>
    <g id="Page-1" stroke="none" stroke-width="1" fill="none" fill-rule="evenodd">
        <g id="mob-tezminds-chat-blank" transform="translate(-75.000000, -370.000000)" fill-rule="nonzero">
            <g id="Group-17" transform="translate(16.000000, 95.000000)">
                <g id="undraw_chat_re_re1u" transform="translate(59.000000, 275.000000)">
                    <path d="M208.134615,87 L207.774038,87 C199.613083,86.9907855 192.999627,80.3970054 192.990385,72.2603306 L192.990385,67.2272727 L149,67.2272727 L149,66.5082645 L193.711538,66.5082645 L193.711538,72.2603306 C193.720496,79.8600595 199.793791,86.0726097 207.413462,86.276426 L207.413462,66.5082645 L217.870192,66.5082645 C220.855909,66.5048964 223.275468,64.092536 223.278846,61.1157025 L223.278846,6.11157025 C223.275468,3.1347367 220.855909,0.722376287 217.870192,0.719008264 L80.1298077,0.719008264 C77.144091,0.722376287 74.7245319,3.1347367 74.7211538,6.11157025 L74.7211538,46.0165289 L74,46.0165289 L74,6.11157025 C74.0038093,2.73781763 76.7459875,0.00379798166 80.1298077,0 L217.870192,0 C221.254012,0.00379798166 223.996191,2.73781763 224,6.11157025 L224,61.1157025 C223.996191,64.4894551 221.254012,67.2234747 217.870192,67.2272727 L208.134615,67.2272727 L208.134615,87 Z" id="Path" fill="#CCCCCC"></path>
                    <path d="M194.992513,18.3236 C194.898595,15.9099869 192.918772,14.0014046 190.507528,14 L107.492173,14 C105.011214,14 103,16.0147186 103,18.5 C103,20.9852814 105.011214,23 107.492173,23 L190.507528,23 C192.987066,22.9965675 194.996274,20.9838582 195,18.5 C195,18.4411082 194.998498,18.3821981 194.992513,18.3236 Z" id="Path" fill="#CCCCCC"></path>
                    <path d="M194.992513,33.3236 C194.898595,30.9099869 192.918772,29.0014046 190.507528,29 L107.492173,29 C105.011214,29 103,31.0147186 103,33.5 C103,35.9852814 105.011214,38 107.492173,38 L190.507528,38 C192.987066,37.9965675 194.996274,35.9838582 195,33.5 C195,33.4411082 194.998498,33.3821981 194.992513,33.3236 Z" id="Path" fill="#CCCCCC"></path>
                    <path d="M194.992538,48.3236 C194.899079,45.9099869 192.928924,44.0014046 190.529454,44 L107.919489,44 C106.592912,44 105.334977,44.5936161 104.486312,45.62 C104.302442,45.8443477 104.139641,46.0853801 104,46.34 L143.502583,46.34 C146.463702,46.343626 148.863265,48.7591656 148.866867,51.74 L148.866867,53 L190.529468,53 C192.996898,52.9965675 194.996295,50.9838582 195,48.5 C195,48.4411079 194.998499,48.3821978 194.992538,48.3236 Z" id="Path" fill="#CCCCCC"></path>
                    <path d="M143.870192,46 L6.12980769,46 C2.74639293,46.0047721 0.00478631723,48.7382218 0,52.1115702 L0,107.115702 C0.00478631723,110.489051 2.74639293,113.222501 6.12980769,113.227273 L15.8653846,113.227273 L15.8653846,133 L16.2259615,133 C24.3871818,132.991422 31.0010119,126.39727 31.0096154,118.260331 L31.0096154,113.227273 L143.870192,113.227273 C147.253606,113.222499 149.995212,110.48905 150,107.115702 L150,52.1115702 C149.995212,48.7382227 147.253606,46.0047741 143.870192,46 Z M149.278846,107.115702 C149.275214,110.092431 146.855804,112.504643 143.870192,112.508264 L30.2884615,112.508264 L30.2884615,118.260331 C30.2781779,125.859684 24.2057842,132.071742 16.5865385,132.277397 L16.5865385,112.508264 L6.12980769,112.508264 C3.1441963,112.504643 0.724785676,110.092431 0.721153846,107.115702 L0.721153846,52.1115702 C0.724785676,49.1348417 3.1441963,46.7226293 6.12980769,46.7190083 L143.870192,46.7190083 C146.855804,46.7226293 149.275214,49.1348417 149.278846,52.1115702 L149.278846,107.115702 Z" id="Shape" fill="#3F3D56"></path>
                    <path d="M116.507827,60 L33.4924722,60 C31.0812242,60.0013953 29.1013956,61.9099828 29.0074868,64.3236 C29.0015013,64.3821981 29,64.4411082 29,64.5 C29.0037871,66.9838327 31.0129598,68.9965062 33.4924722,69 L116.507827,69 C118.988786,69 121,66.9852814 121,64.5 C121,62.0147186 118.988786,60 116.507827,60 L116.507827,60 Z" id="Path" fill="#0064D9"></path>
                    <path d="M116.507827,75 L33.4924722,75 C31.0812242,75.0013953 29.1013956,76.9099828 29.0074868,79.3236 C29.0015013,79.3821981 29,79.4411082 29,79.5 C29.0037871,81.9838327 31.0129598,83.9965062 33.4924722,84 L116.507827,84 C118.988786,84 121,81.9852814 121,79.5 C121,77.0147186 118.988786,75 116.507827,75 L116.507827,75 Z" id="Path" fill="#0064D9"></path>
                    <path d="M116.507827,90 L33.4924722,90 C31.0812242,90.0013953 29.1013956,91.9099828 29.0074868,94.3236 C29.0015013,94.3821981 29,94.4411082 29,94.5 C29.0037871,96.9838327 31.0129598,98.9965062 33.4924722,99 L116.507827,99 C118.988786,99 121,96.9852814 121,94.5 C121,92.0147186 118.988786,90 116.507827,90 Z" id="Path" fill="#0064D9"></path>
                    <circle id="Oval" fill="#E6E6E6" cx="219.5" cy="109.5" r="21.5"></circle>
                    <path d="M220.987865,125 C220.272104,124.975605 219.381332,124.945016 218.695495,124.33321 C218.281915,123.949151 218.028372,123.361631 218.002738,122.727928 C217.977603,122.276962 218.126594,121.837585 218.405446,121.540327 C218.820835,121.161655 219.365114,121.065973 219.851107,121.286184 L219.266796,116.071763 L219.695716,116 L220.382659,122.130192 L220.024495,121.929484 C219.609199,121.696893 219.03917,121.578664 218.684906,121.94407 C218.508618,122.137687 218.416357,122.420619 218.435399,122.709215 C218.456611,123.180727 218.644751,123.617647 218.950845,123.906236 C219.48458,124.382517 220.194619,124.443954 221,124.471575 L220.987865,125 Z" id="Path" fill="#3F3D56"></path>
                    <rect id="Rectangle" fill="#3F3D56" x="215" y="116" width="3" height="1"></rect>
                    <rect id="Rectangle" fill="#3F3D56" x="223" y="116" width="3" height="1"></rect>
                    <path d="M208.937333,109.514327 C206.708072,109.25289 204.981559,107.056226 204.791925,104.827384 C204.566315,102.175824 206.067818,99.6574542 208.127744,98.1695265 C210.281955,96.6134855 212.965893,95.9636834 215.562723,95.8206415 C220.628531,95.5613867 225.60704,97.2490101 229.530103,100.555329 C231.47595,102.217414 233.293245,104.334618 233.982009,106.891938 C234.580175,109.112859 234.093418,111.62888 232.356561,113.184346 C231.487943,113.954982 230.345451,114.31675 229.205789,114.182032 C227.858119,114.038121 226.614674,113.309354 225.538323,112.504505 C223.444595,110.938906 221.725752,108.757891 219.174918,107.939746 C217.304558,107.339866 214.877393,107.867898 213.734416,109.607389 C213.475063,110.005586 213.306995,110.45914 213.242881,110.933858 C213.193886,111.143957 213.311593,111.357161 213.512129,111.421551 C213.717259,111.478372 213.928668,111.354924 213.986336,111.144646 C214.286402,108.953707 216.905874,108.136165 218.744033,108.63651 C221.424151,109.366049 223.223291,111.825663 225.422222,113.388359 C226.560451,114.26121 227.901427,114.811673 229.311232,114.984776 C230.533626,115.083406 231.746731,114.700138 232.704454,113.912721 C234.583007,112.387171 235.301415,109.763265 234.886019,107.400877 C234.404987,104.665195 232.614606,102.32055 230.65018,100.505312 C226.66775,96.8641865 221.497554,94.8999176 216.169867,95.0039292 C213.452477,95.0681221 210.617136,95.6450467 208.276116,97.1221441 C206.005337,98.55492 204.250219,100.951952 204.020824,103.738259 C203.818906,106.190745 205.098335,108.755927 207.294579,109.830357 C207.812408,110.08262 208.367694,110.243821 208.93735,110.307259 C209.429486,110.364975 209.425476,109.571585 208.93735,109.514338 L208.937333,109.514327 Z" id="Path" fill="#3F3D56"></path>
                </g>
            </g>
        </g>
    </g>
</svg>